<svg xml:space="preserve" style="enable-background:new 0 0 500 500;" viewBox="0 0 500 500" y="0px" x="0px" xmlns:xlink="http://www.w3.org/1999/xlink" xmlns="http://www.w3.org/2000/svg" id="图层_1" version="1.1">
<style type="text/css">
	.st0{fill:#F9F4E1;}
	.st1{fill:#EAAC81;}
	.st2{fill:#F7F4E3;}
	.st3{fill:#C46573;}
	.st4{fill:#F38B82;}
	.st5{fill:#F58D84;}
	.st6{fill:#683E35;}
</style>
<g>
	<g>
		<path d="M440.64,268c0,0,0,0.05-0.01,0.14v0c-0.01,0.06-0.02,0.13-0.03,0.22c-0.09,0.73-0.35,2.51-0.9,5.13
			c0,0,0,0,0,0.01c-0.15,0.73-0.33,1.51-0.53,2.37c-0.38,1.58-0.84,3.37-1.4,5.33c0,0.02-0.01,0.04-0.01,0.06
			c-3.09,10.67-9.33,26.56-21.66,42.95c-1.14,1.51-2.33,3.03-3.58,4.55c-0.74,0.9-1.5,1.8-2.27,2.71c0.02,0.07,0.04,0.14,0.07,0.21
			c0.04,0.13,0.09,0.26,0.15,0.4c-1.47,1.89-2.98,3.72-4.52,5.45c-3.84,4.31-8.22,9.01-13.23,13.8c-0.61,0.58-1.22,1.17-1.85,1.75
			c-0.43,0.4-0.85,0.8-1.29,1.2c-0.46,0.41-0.91,0.83-1.38,1.24c-0.83,0.75-1.68,1.49-2.53,2.22c-0.44,0.38-0.89,0.76-1.34,1.14
			c-7.75,6.56-16.79,13.03-27.4,18.71c-0.41,0.21-0.82,0.44-1.23,0.65c-8.97,4.75-18.72,8.81-29.29,11.93
			c-5.1,1.73-8.14,2.5-8.14,2.5s-3.97,0.94-10.94,1.9c-0.02,0.01-0.04,0.01-0.06,0.01c-13.09,2.22-27.25,3.04-42.56,2.1
			c-7.54-0.46-14.71-1.22-21.54-2.25c-0.02,0-0.04,0-0.06-0.01c-13.41-1.87-27.8-5.11-42.46-10.37
			c-20.24-7.27-36.14-17.87-48.46-29.48c0.05-0.19-0.15-0.58-0.55-1.13c-0.11-0.15-0.24-0.32-0.37-0.5
			c-2.6-3.29-10.19-10.81-17.21-19.39c-0.47-0.56-0.93-1.14-1.39-1.71c-0.3-0.39-0.61-0.78-0.92-1.17
			c-4.72-6.07-8.87-12.48-10.61-18.19c-0.03-0.1-0.06-0.19-0.09-0.29c-0.09-0.31-0.18-0.62-0.27-0.93c-0.57-2-1.07-3.86-1.51-5.58
			c-3.26-12.81-3.3-18.37-5.52-20.91c-0.52-0.59-1.12-1.29-1.69-2.06c-0.02-0.02-0.04-0.05-0.06-0.08
			c-0.26-0.33-0.51-0.68-0.75-1.04c-0.12-0.18-0.23-0.35-0.33-0.52c-0.56-0.92-1.03-1.87-1.29-2.82c-0.51-1.86-0.19-3.68,1.85-5.06
			c0.47-0.32,1.15-1.01,1.99-2.02c0.5-0.6,1.06-1.3,1.67-2.1c0,0,0.01,0,0.01-0.01c4.39-5.79,11.31-16.57,17.17-27.13
			c1.65-2.98,3.22-5.94,4.62-8.77c0.05-0.1,0.09-0.2,0.15-0.3c0.63-1.28,1.22-2.52,1.78-3.73c0.11-0.25,0.23-0.49,0.34-0.74
			c2.14-4.77,3.58-8.88,3.86-11.65c0.15-1.46,0.26-2.64,0.34-3.57c0.08-0.87,0.12-1.53,0.15-2.01v-0.01
			c0.01-0.18,0.01-0.34,0.02-0.47v-0.02c0.01-0.49-0.01-0.68-0.06-0.66c-0.03,0-0.06,0.08-0.1,0.2c-0.18,0.55-0.46,2.06-0.56,2.67
			c-0.03,0.16-0.05,0.26-0.05,0.26s-8.7-3.74-18.81-13.64c-7.56-7.4-15.9-18.24-21.98-33.52c-0.09-0.21-0.17-0.42-0.25-0.63
			c-0.05-0.13-0.1-0.26-0.15-0.39c-0.16-0.41-0.32-0.82-0.47-1.23c0.02-0.02,0.04-0.03,0.06-0.05c1.05-0.92,2.4-1.92,4.06-2.95
			c9.17-5.64,27.75-11.81,56.66-7.03c3.95,0.65,8.11,1.51,12.45,2.61c0.36,0.09,0.73,0.19,1.09,0.28c0.44,0.11,0.87,0.23,1.31,0.35
			c3.56,0.95,7.26,2.06,11.08,3.34c0.53,0.18,1.07,0.36,1.61,0.55c2.16,0.74,4.37,1.54,6.62,2.4c0.37,0,0.83-0.09,1.38-0.27
			c1.55-0.48,3.8-1.6,6.72-3.07l0,0c6.11-3.07,15.13-7.64,26.62-11.05c11.16-3.32,24.65-5.54,40.09-4.23
			c0.08-0.1,0.19-0.25,0.32-0.43c0.86-1.22,2.83-4.03,5.55-5c0.66-0.24,1.38-0.37,2.13-0.33c2.81,0.12,3.69,3.12,4.49,5.23
			c0,0,0,0.01,0,0.01c0.29,0.77,0.57,1.41,0.94,1.75c0.15,0.15,0.32,0.24,0.51,0.26c0.54,0.05,0.71-0.56,0.77-1.44
			c0.03-0.42,0.04-0.91,0.05-1.41c0.07-2.07,0.28-4.5,2.71-4.39c2.66,0.11,4.39,3.62,5.71,6.34c0.46,0.93,0.86,1.77,1.24,2.34
			c0.29,0.45,0.57,0.74,0.85,0.8c0.21,0.05,0.46,0.04,0.73-0.02c0,0,0,0,0,0c0.39-0.08,0.84-0.26,1.29-0.5
			c1.68-0.89,3.54-2.62,3.93-3.38c0.08-0.16,0.2-0.18,0.36-0.09c0,0,0.01,0,0.01,0c0.65,0.39,1.89,2.6,3.11,4.11
			c0,0.01,0.01,0.01,0.01,0.01c0.52,0.65,1.04,1.16,1.52,1.35c0.04,0.02,0.1,0.03,0.17,0.05c0.45,0.12,1.44,0.28,2.82,0.47h0.01
			c0.54,0.08,1.14,0.16,1.79,0.25h0.02c1.5,0.2,3.27,0.43,5.18,0.7c2.1,0.29,4.39,0.63,6.69,1.01c7.56,1.25,15.37,2.98,17.9,5.33
			c0.08-0.18,0.19-0.43,0.33-0.75c0.53-1.18,1.51-3.25,2.81-5.88c3.56-7.19,9.49-18.56,14.98-27.4c0.02-0.03,0.04-0.06,0.06-0.09
			c0.36-0.57,0.71-1.13,1.06-1.68c3.25-5.08,6.28-9.08,8.47-10.55c0.19-0.12,0.37-0.23,0.54-0.32c0.02-0.01,0.03-0.02,0.05-0.02
			c0.51-0.24,1.07-0.33,1.67-0.27c0.07,0,0.13,0.01,0.19,0.03c0.2,0.03,0.4,0.08,0.6,0.14c0,0,0,0,0,0c2.89,0.86,6.56,4.64,10.3,10
			c1.22,1.74,2.44,3.65,3.65,5.67c1.36,2.28,2.7,4.71,3.98,7.24c0,0.02,0.01,0.04,0.02,0.06c0.39,0.76,0.77,1.53,1.15,2.3
			c0.01,0.01,0.02,0.03,0.02,0.05c3.71,7.67,6.84,15.96,8.48,23.14c0.74,3.23,1.32,6.42,1.78,9.53c0.22,1.45,0.4,2.88,0.56,4.29
			c0,0.06,0.01,0.11,0.02,0.17c0.06,0.48,0.11,0.95,0.16,1.43c0.53,5.14,0.73,9.91,0.73,14.03v0c0,4.87-0.28,8.82-0.62,11.43
			c-0.06,0.46-0.12,0.86-0.19,1.23c0,0,0,0,0,0c-0.13,0.8-0.27,1.4-0.4,1.77c-0.07,0.19-0.08,0.45-0.04,0.78
			c0.04,0.43,0.17,0.97,0.36,1.61c0,0,0,0,0,0c1.24,4.2,5.29,12.89,8.77,23.71c0,0.01,0,0.01,0,0.02c0.56,1.75,1.11,3.55,1.63,5.4
			c1.77,6.31,3.19,13.15,3.72,20.13c0.02,0.26,0.04,0.51,0.06,0.77c0.04,0.05,0.09,0.1,0.13,0.14c3.76,4.02,16.83,9.51,21.85,11.52
			c0.2,0.09,0.4,0.16,0.57,0.23C440.12,267.8,440.64,268,440.64,268z" class="st0"></path>
	</g>
	<g>
		<g>
			<path d="M440.84,268.48c-0.01,0.1-0.02,0.21-0.04,0.33v0.01c-0.15,1.04-0.51,2.62-1.09,4.66c0,0,0,0,0,0.01
				c-3.22,11.33-13.18,36.56-30.23,58.67c-23.27,32.3-59.13,49.14-78.22,56.25c-1.77,0.66-3.39,1.24-4.85,1.74
				c-5.1,1.73-8.14,2.5-8.14,2.5s-3.97,0.94-10.94,1.9c-0.02,0.01-0.04,0.01-0.06,0.01c-13.02,1.81-36.48,3.71-64.1-0.14
				c-0.02,0-0.04,0-0.06-0.01c-13.41-1.87-27.8-5.11-42.46-10.37c-20.24-7.27-36.14-17.87-48.46-29.48
				c-4.95-4.67-9.31-9.49-13.15-14.33c-0.01-0.01-0.03-0.03-0.04-0.04c-0.79-1.01-1.57-2.01-2.32-3.01
				c-0.01-0.02-0.02-0.03-0.04-0.05c-0.89-1.2-1.75-2.39-2.58-3.58c-6.96-9.98-11.74-19.72-14.78-27.88
				c-1.59-4.29-2.71-8.15-3.41-11.37c0-0.02-0.01-0.05-0.01-0.07c-0.13-0.63-0.25-1.23-0.36-1.81c-0.09-0.51-0.17-1-0.24-1.46
				c-0.21-1.46-0.97-3.46-1.87-5.47c-0.33-0.75-0.69-1.49-1.04-2.21c-0.05-0.1-0.1-0.21-0.16-0.31c-0.06-0.12-0.12-0.23-0.18-0.35
				c-0.98-1.92-1.91-3.57-2.37-4.38c-0.18-0.3-0.29-0.49-0.31-0.53c0,0,0,0,0,0c-0.13-0.41-0.17-0.84-0.11-1.26
				c0.15-1.09,0.87-2.23,1.89-3.4c1.11-1.28,2.58-2.61,4.04-3.99c0,0,0.01,0,0.01-0.01c1.13-1.06,2.26-2.15,3.22-3.26
				c0.36-0.42,0.7-0.84,1.01-1.26c2.8-3.7,5.89-8.88,8.88-14.53c0,0,0.01-0.01,0.01-0.02c1.39-2.62,2.75-5.34,4.05-8.05
				c6.32-13.15,11.26-26.31,10.55-28.08c-8.42-4.89-15.37-10.54-21.01-16.25c-4.28-4.33-7.8-8.7-10.63-12.81
				c-0.03-0.04-0.06-0.08-0.09-0.12c-5.35-7.79-8.22-14.63-9.07-18.48c-0.02-0.08-0.03-0.16-0.05-0.23
				c-0.13-0.63-0.2-1.17-0.22-1.61c-0.03-0.75,0.1-1.22,0.36-1.39c16.74-10.47,36.7-11.83,54.15-10c0.02,0,0.04,0,0.06,0
				c1.88,0.2,3.74,0.44,5.56,0.71c17.16,2.51,31.05,7.68,35.55,9.24c0.43,0.15,0.76,0.26,1.02,0.34c0.15,0.04,0.26,0.08,0.35,0.09
				c0.75-0.53,1.51-1.05,2.27-1.55c1.02-0.68,2.05-1.32,3.09-1.95l0,0c8.85-5.34,18.03-8.82,26.62-11.05
				c5.52-1.44,10.8-2.36,15.59-2.94c13.1-1.59,22.54-0.59,23.35-0.46c1.68,0.28,5.59-5.45,8.39-6.15c1.7-0.43,3.5,2.04,4.77,4.03
				c0.17,0.26,0.33,0.51,0.47,0.75c0,0,0,0.01,0,0.01c0.58,0.94,1,1.63,1.18,1.63c0.24,0,0.59-1.15,1.1-2.48
				c0.11-0.28,0.23-0.58,0.36-0.87c0.63-1.5,1.48-2.94,2.6-3.08c0.11-0.01,0.22,0,0.33,0.02c0,0,0,0,0.01,0
				c0.07,0.02,0.13,0.04,0.2,0.06c0.02,0,0.04,0.01,0.06,0.02c1.16,0.48,2.56,2.48,3.91,4.43c0.32,0.47,0.64,0.92,0.95,1.36
				c1.05,1.48,2.03,2.67,2.79,2.77c0.4,0.05,0.85-0.01,1.33-0.16c0.97-0.29,2.03-0.89,2.88-1.45c0.96-0.62,1.66-1.19,1.66-1.19
				s0.4,0.55,1.03,1.29c0.5,0.6,1.15,1.33,1.85,2c0,0.01,0.01,0.01,0.01,0.01c0.55,0.53,1.12,1.03,1.68,1.4
				c0.18,0.12,0.37,0.23,0.54,0.32c0.13,0.07,0.26,0.13,0.38,0.18c1.26,0.03,2.5,0.1,3.71,0.21h0.02c1.79,0.16,3.52,0.4,5.18,0.7
				c12.24,2.2,20.84,7.49,23.8,6.93c0.66-0.12,1.04-0.54,1.12-1.35c0-0.05,0-0.1,0.01-0.16c0.11-2.61,5.2-12.52,11.13-22.48
				c2.17-3.65,4.46-7.31,6.65-10.63c0.02-0.03,0.04-0.06,0.06-0.09c0.89-1.33,1.76-2.62,2.6-3.81c0.03-0.04,0.06-0.09,0.09-0.13
				c2.61-3.69,4.93-6.58,6.56-7.98c0.32-0.27,0.61-0.48,0.87-0.64c0.26-0.15,0.48-0.24,0.68-0.27c0.32-0.05,0.65-0.04,0.98,0
				c0.07,0,0.13,0.01,0.19,0.03c0.23,0.04,0.45,0.1,0.68,0.18c0,0,0,0,0.01,0c1.71,0.6,3.52,2.24,5.4,4.41
				c0.45,0.52,0.9,1.07,1.36,1.64c2.25,2.83,4.59,6.24,6.98,9.41c0.04,0.06,0.08,0.11,0.12,0.17c0.28,0.37,0.56,0.74,0.85,1.11
				c0.11,0.14,0.22,0.29,0.34,0.43c1.44,2.72,2.76,5.41,3.96,8.06c0.01,0.01,0.02,0.03,0.02,0.05c4.87,10.7,7.88,20.79,9.64,29.79
				c0.48,2.47,0.87,4.86,1.18,7.16c0,0.06,0.01,0.11,0.02,0.17c0.08,0.55,0.14,1.09,0.2,1.63c0.6,5.14,0.78,9.79,0.68,13.83v0
				c-0.15,6.47-1.01,11.37-1.99,14.22c0.08,0.1,0.16,0.2,0.23,0.3c0.01,0.01,0.02,0.02,0.03,0.04c0.17,0.21,0.33,0.43,0.48,0.66
				c2.5,3.56,4.63,8.93,6.42,14.88c1.01,3.37,1.91,6.92,2.71,10.44c0,0.01,0,0.01,0,0.02c2.85,12.55,4.41,24.8,4.94,27.08
				c0.31,1.34,2.43,2.81,5.34,4.27c4.92,2.47,12.09,4.93,16.55,6.7c0.13,0.05,0.26,0.1,0.38,0.15c0.14,0.06,0.28,0.11,0.4,0.17
				c0.66,0.27,1.25,0.53,1.73,0.75c0.07,0.04,0.14,0.07,0.2,0.1C440.82,268.47,440.83,268.48,440.84,268.48z" class="st1"></path>
		</g>
		<g>
			<path d="M375.19,123.88c0,0,3.5,35.24-0.97,44.77c1.75,1.56,5.06,2.34,5.65,6.81c0.58,4.48,0.58,8.57,0.58,8.57
				s19.86,15.57,20.44,19.08c0.58,3.5,6.42-12.26,2.92-23.94s-9.73-57.23-32.12-67.74C373.04,119.01,375.19,123.88,375.19,123.88z" class="st2"></path>
		</g>
		<g>
			<path d="M101.56,164.33c0,0,28.63,0.62,57.42,23.06c1.24,2.17-2.94,7.43-9.59,8.82c-6.65,1.39-2.63,3.71-2.32,5.57
				c0.31,1.86-3.87,4.33-3.87,4.33l0.62,7.27C143.81,213.39,104.19,191.88,101.56,164.33z" class="st2"></path>
		</g>
		<g>
			<path d="M440.8,268.47c0,0.1,0,0.22-0.01,0.35v0.01c-0.08,1.35-0.64,3.8-1.62,7.04c-2.8,9.19-9.05,24.76-17.68,39.63
				c-1.71,2.95-3.52,5.87-5.41,8.71c-1.8,2.71-3.69,5.35-5.64,7.86c-1.47,1.89-2.98,3.72-4.52,5.45c-3.84,4.31-8.22,9.01-13.23,13.8
				c-0.61,0.58-1.22,1.17-1.85,1.75c-0.43,0.4-0.85,0.8-1.29,1.2c-0.46,0.41-0.91,0.83-1.38,1.24c-0.83,0.75-1.68,1.49-2.53,2.22
				c-0.44,0.38-0.89,0.76-1.34,1.14c-7.75,6.56-16.79,13.03-27.4,18.71c-0.41,0.21-0.82,0.44-1.23,0.65
				c-7.37,3.86-15.48,7.33-24.43,10.19c-18.29,5.84-40.07,9.13-66.14,7.91c-47.46-2.08-86.48-18.05-113.85-43.38
				c-5.31-4.91-10.18-10.18-14.59-15.76c-0.01-0.02-0.02-0.03-0.04-0.05c-1.37-1.73-2.69-3.5-3.97-5.3
				c-2.7-3.79-5.2-7.71-7.49-11.76c-1.25-2.22-2.44-4.47-3.57-6.76c-0.19-0.37-0.37-0.75-0.55-1.13c-0.92-1.96-1.68-3.96-2.32-5.93
				c-1.42-4.33-2.26-8.53-2.88-11.94c0-0.02-0.01-0.05-0.01-0.07c-0.13-0.74-0.26-1.45-0.37-2.11c-0.32-1.83-0.59-3.32-0.88-4.31
				c0-0.02-0.01-0.05-0.02-0.07c-0.08-0.27-0.17-0.5-0.26-0.69c0-0.01-0.01-0.02-0.01-0.03c-0.05-0.1-0.1-0.19-0.16-0.27
				c-0.24-0.35-0.5-0.78-0.76-1.27c-0.37-0.7-0.75-1.5-1.11-2.3c0-0.01-0.01-0.02-0.01-0.02c-0.03-0.06-0.06-0.13-0.09-0.19
				c-0.04-0.09-0.08-0.18-0.12-0.27c-0.78-1.8-1.37-3.4-1.37-3.4s4.14,1.39,9.16,2.71c4,1.05,8.55,2.05,12,2.27
				c1.96,0.12,3.57-0.01,4.52-0.53c0.49-0.27,0.94-0.62,1.39-1.04c1.11-1.04,2.14-2.5,3.33-4.05c0,0,0.01-0.01,0.02-0.02
				c1.8-2.35,3.99-4.94,7.39-6.66c0.01,0,0.03-0.01,0.04-0.02c1.65-0.84,3.59-1.47,5.9-1.78h0.02c0.77-0.1,1.58-0.17,2.43-0.2
				c0.15-0.04,0.31-0.12,0.48-0.26c0.89-0.66,2.09-2.45,3.81-4.42c0,0,0.01-0.01,0.01-0.02c1.5-1.72,3.38-3.57,5.79-4.94
				c0.01,0,0.02,0,0.02-0.01c2.45-1.4,5.45-2.27,9.11-1.97c0.13,0.01,0.27,0.02,0.4,0.04c3.84,0.4,10.11,2.1,17.04,4.29
				c7.09,2.24,14.87,4.99,21.45,7.38c0.43,0.16,0.86,0.31,1.29,0.47c7.53,2.74,13.23,4.89,14.06,5.05c2.3,0.43,9.47-3.3,13.92-4.73
				c2.34-0.75,9.86-3.23,19.24-3.59c6.06-0.24,12.89,0.41,19.6,2.95c0,0,0.01,0,0.01,0.01c2.63,0.99,5.24,2.28,7.78,3.93
				c0.75,0.3,3.44-0.2,6.79-1.35c0,0,0,0,0.01,0c6.24-2.13,14.79-6.48,17.6-11.99c0.05-0.09,0.1-0.17,0.18-0.26
				c0.15-0.21,0.35-0.43,0.6-0.66c2.98-2.84,12.64-7.54,23.81-6.79c2.18,0.15,4.43,0.5,6.69,1.12c0.73,0.2,1.43,0.39,2.1,0.57
				c0.3,0.08,0.59,0.16,0.87,0.23c0,0,0,0,0.01,0c1.38,0.37,2.62,0.68,3.71,0.96c0.01,0,0.02,0,0.03,0
				c0.87,0.22,1.66,0.41,2.37,0.57c4.1,0.96,5.69,1.14,6.31,1.15c0.34,0,0.38-0.05,0.38-0.05s3.06,1.44,6.86,3.09
				c1.92,0.83,4.02,1.71,6.02,2.49c1.6,0.62,3.13,1.17,4.44,1.58c0.04,0.01,0.08,0.02,0.11,0.03c0.33,0.1,0.64,0.19,0.94,0.27
				c4.06,1.09,10.74,4.51,16.36,6.43c2.52,0.86,4.83,1.41,6.6,1.32c3.08-0.15,12.85-2.08,21.57-3.6c0.02,0,0.03,0,0.05-0.01
				c3.67-0.63,7.16-1.2,9.88-1.51c0.04,0,0.07-0.01,0.11-0.01c1.17-0.14,2.19-0.23,3.02-0.27c0.04,0,0.08,0,0.12,0
				c0.28-0.01,0.53-0.01,0.76,0c0.69,0.01,1.16,0.09,1.37,0.24c0.1,0.08,0.17,0.25,0.19,0.5C440.8,268.27,440.8,268.36,440.8,268.47
				z" class="st2"></path>
		</g>
		<g>
			<g>
				<path d="M257.93,315.93c0,0-18.41,11.9-29.93,10.9c1.25,5.39,11.02,13.53,17.66,15.15s39.58,3.26,49.72-2.25
					c10.14-5.51,15.03-12.02,15.03-12.02S274.46,338.85,257.93,315.93z" class="st3"></path>
			</g>
			<g>
				<path d="M340.85,207.21c0,0-26.54,1.78-22.26,19.78s30.17,2.46,29.74-1.39c-0.43-3.86-4.47-5.05-3.9-5.27
					c0.58-0.22,7.45-3.24,5.09-5.53s-8.06-0.9-8.06-0.9S344.23,209.23,340.85,207.21z" class="st2"></path>
			</g>
			<g>
				<path d="M197.66,214.56c0,0,20.57,5.2,18.85,19.27c-1.73,14.07-35.84,7.34-34.93-0.4c0.74-2.5,4.06-1.22,4.06-1.22
					s-4.41-7.53-1.83-8.32c2.58-0.8,7.61-0.22,7.61-0.22S187.58,215.56,197.66,214.56z" class="st2"></path>
			</g>
			<path d="M282.3,331.6c-4.94-0.11-18.08-9.04-18.08-9.04l-4.35,3.24c0,0-8,6.12-13.65,13.71
				c-1.35,1.81-2.56,3.71-3.5,5.62c-3.79,7.75-3.1,15.84,11.33,20.12c14.8,3.01,24.53-8.35,28.68-18.16
				c1.06-2.49,1.75-4.89,2.07-6.91c0.33-2.09,0.27-3.79-0.18-4.83C284.62,335.35,287.24,331.7,282.3,331.6z" class="st4"></path>
			<g>
				
					<ellipse ry="15.97" rx="16.83" cy="279.28" cx="177.3" class="st5" transform="matrix(0.9937 -0.1118 0.1118 0.9937 -30.1067 21.5686)"></ellipse>
			</g>
			<g>
				
					<ellipse ry="15.89" rx="19.81" cy="276.54" cx="365.71" class="st5" transform="matrix(0.9937 -0.1118 0.1118 0.9937 -28.6195 42.6111)"></ellipse>
			</g>
			<g>
				<path d="M442.5,265.41c-0.64-1.09-1.9-1.74-3.23-1.54c-0.12,0.02-0.5,0.07-1.08,0.16
					c-4.01-1.29-10.67-3.63-15.02-6.2c-2.58-1.53-3.12-2.43-3.19-2.57c-0.01-0.04-0.02-0.08-0.03-0.12l-0.01-0.06
					c-0.01-0.03-0.01-0.07-0.02-0.1c-0.06-0.28-0.12-0.56-0.18-0.85c-0.46-2.28-0.91-4.88-1.38-7.63c-0.66-3.79-1.4-8.09-2.34-12.53
					c-1.31-6.15-2.77-11.48-4.47-16.26c-1.77-5.01-3.87-9.62-6.25-13.71c-0.02-0.04-0.04-0.08-0.07-0.12
					c-0.09-0.15-0.17-0.29-0.26-0.43c3.39-8.45,2.53-20.56,1.08-29.71c-2-12.64-6.23-26.75-11.6-38.72
					c-10.5-23.41-21.45-27.75-22.66-28.17c-1.17-0.4-2.47-0.1-3.33,0.79c-15.35,15.73-25.42,39.07-28.4,46.57
					c-2.33-1.04-4.74-1.98-7.23-2.81c-10.88-3.62-20.21-4.19-24.19-4.43c-0.2-0.01-0.42-0.03-0.62-0.04
					c-0.66-0.87-1.78-2.61-2.72-4.25c-0.59-1.04-1.72-1.67-2.9-1.62c-1.19,0.05-2.25,0.74-2.76,1.82c-0.21,0.42-1.13,1.88-2.18,2.13
					c-0.34-0.45-0.81-1.41-1.14-2.09c-1.13-2.33-2.69-5.51-6.11-6.65c-2.07-0.69-3.58-0.19-4.48,0.36
					c-0.77,0.47-1.33,1.09-1.74,1.79c-0.99-1.19-2.42-2.21-4.56-2.58c-4.94-0.85-8.5,3.04-10.24,5.54
					c-18.66-1.33-37.21,3.87-49.67,8.56c-10.99,4.14-19.1,8.51-22.22,10.28c-33.82-13.08-58.4-12.42-73.14-9.52
					c-16.53,3.25-24.73,9.89-25.07,10.18c-1.01,0.83-1.41,2.2-1.01,3.45c6.27,19.61,17.63,32.9,26.06,40.59
					c7.31,6.67,13.66,10.38,16.1,11.68c-0.21,1.37-0.55,2.69-1,3.84c-0.41,1.01-1.47,3.44-2.93,6.56c-0.01,0.01-0.01,0.03-0.02,0.04
					l-0.32,0.7c-0.53,1.13-1.12,2.36-1.74,3.65c-0.06,0.12-0.12,0.25-0.18,0.37c-2,4.13-5.1,10.36-8.58,16.64
					c-0.01,0.02-0.02,0.04-0.03,0.06c-3.61,6.53-6.85,11.7-9.61,15.37c-1.68,2.23-3.14,3.84-4.35,4.8
					c-0.14,0.11-0.27,0.21-0.41,0.31c-0.83,0.58-1.56,1.17-2.18,1.76c-1.79,1.71-2.73,3.51-2.87,5.5c-0.05,0.73,0.01,1.47,0.19,2.21
					c0.01,0.05,0.03,0.1,0.04,0.15c0.38,1.51,1.16,2.89,1.96,4.16c0.12,0.19,0.24,0.38,0.36,0.57c0.16,0.26,0.33,0.52,0.5,0.79
					c0.13,0.21,0.27,0.42,0.4,0.63c0.03,0.06,0.07,0.12,0.1,0.17c0.02,0.03,0.04,0.06,0.06,0.1c0.52,0.84,1.17,1.95,1.69,3.22
					c0.01,0.02,0.01,0.04,0.02,0.05c0.07,0.17,0.13,0.34,0.19,0.51c0.01,0.03,0.02,0.07,0.03,0.1c0.4,1.13,0.63,2.25,0.7,3.42
					c0,0.04,0.01,0.07,0.01,0.11l0.01,0.06c0,0.05,0,0.1,0.01,0.14c0.01,0.19,0.02,0.41,0.01,0.67c-0.03,3.02,1.25,8.28,3.43,14.07
					c0.65,1.73,1.36,3.48,2.12,5.18c1.32,3,2.84,6.05,4.51,9.08c2.03,3.67,4.3,7.33,6.74,10.86c2.27,3.3,4.76,6.56,7.38,9.72
					c0.05,0.06,0.09,0.11,0.14,0.16c3.92,4.7,8.24,9.22,12.84,13.44c24.02,22.05,55.33,36.1,93.07,41.77
					c0.08,0.01,0.15,0.03,0.23,0.03c7.04,1.05,14.36,1.81,21.73,2.26c4.19,0.26,8.36,0.39,12.48,0.39c10.53,0,20.81-0.84,30.68-2.51
					c0.1-0.01,0.2-0.03,0.3-0.05c6.56-1.11,13.06-2.62,19.34-4.47c10.34-3.05,20.4-7.15,29.85-12.15c0.24-0.13,0.48-0.25,0.73-0.38
					c0.17-0.09,0.35-0.18,0.52-0.27c0.01-0.01,0.03-0.01,0.04-0.02c9.83-5.32,19.23-11.74,27.94-19.08
					c0.46-0.39,0.92-0.78,1.36-1.17c0.92-0.79,1.77-1.54,2.57-2.25c0.48-0.42,0.95-0.85,1.41-1.27c0.44-0.41,0.89-0.82,1.32-1.22
					c0.63-0.59,1.26-1.19,1.88-1.78c6.38-6.14,12.41-12.87,17.92-20c0.85-1.09,1.58-2.07,2.25-2.97c3.22-4.34,6.29-8.87,9.14-13.49
					c9.02-14.63,13.99-27.07,16.57-34.92c0.02-0.05,0.03-0.11,0.05-0.16c1.59-4.86,2.75-9.47,3.35-13.35
					C444.42,267.36,443.71,266.03,442.5,265.41z M113.31,275.37c0.38-0.36,0.86-0.75,1.43-1.15c0.25-0.18,0.5-0.36,0.73-0.55
					c1.64-1.31,3.43-3.25,5.46-5.95c2.95-3.92,6.36-9.36,10.13-16.17l0,0c0.01-0.02,0.02-0.04,0.03-0.06
					c3.54-6.4,6.7-12.75,8.73-16.94c0.01-0.02,0.02-0.05,0.03-0.07c0.02-0.05,0.04-0.1,0.07-0.14c0.02-0.03,0.03-0.06,0.05-0.1
					c0.64-1.33,1.24-2.59,1.79-3.76c0.01-0.01,0.01-0.03,0.02-0.04l0.15-0.33c0.06-0.13,0.12-0.26,0.18-0.39
					c1.61-3.45,2.66-5.86,3.07-6.89c1.12-2.83,1.73-6.22,1.71-9.53c-0.01-0.85-0.05-1.67-0.14-2.43c0-0.03-0.01-0.06-0.01-0.1
					c-0.05-0.41-0.11-0.8-0.17-1.15c-0.09-0.53-0.21-1.03-0.34-1.5c1.79-0.63,4.79-1.91,4.43-5.18c-0.08-0.75-0.37-1.5-0.9-2.35
					c-0.19-0.3-0.4-0.61-0.64-0.93c0.35-0.12,0.71-0.27,1.07-0.43c4.47-1.99,8.59-6.4,8.76-6.59c0.3-0.33,0.53-0.7,0.67-1.1
					c4.2,3.16,7.05,5.57,7.76,6.27c0.61,0.79,1.55,1.25,2.54,1.25c0.37,0,0.75-0.07,1.12-0.2c1.66-0.62,2.5-2.46,1.88-4.12
					c-0.27-0.73-0.51-1.36-6.6-6.14c-3.04-2.39-7.92-6.06-13.94-9.99c-10.25-6.7-25.15-15.02-37.98-16.59
					c-1.75-0.21-3.35,1.03-3.57,2.79c-0.21,1.76,1.03,3.35,2.79,3.57c13.21,1.61,29.77,11.61,41.03,19.56
					c-0.14,0.11-0.27,0.22-0.4,0.36c-0.94,1.01-3.97,3.89-6.67,5.1c-0.49,0.22-0.93,0.36-1.3,0.43c-0.04,0.01-0.08,0.02-0.12,0.03
					c-0.36,0.06-0.65,0.04-0.83-0.04c-0.91-0.42-3.67-1.68-5.39,0.64c-0.72,0.97-1.22,2.6,0.5,4.85c0.45,0.58,1.03,1.25,1.66,1.96
					c0.32,0.37,0.67,0.77,1.01,1.16c-1.04,0.37-3.13,1.14-3.83,3.2c-0.35,1.04-0.25,2.14,0.26,3.15
					c-8.28-5.32-25.87-19.06-34.63-44.14c3.04-1.92,10.01-5.63,20.96-7.72c14.04-2.67,37.67-3.14,70.52,9.85
					c0.93,0.37,1.98,0.28,2.84-0.24c0.36-0.22,36.63-21.93,71.34-18.58c1.3,0.13,2.55-0.56,3.15-1.71c0.81-1.55,3-4.34,4.61-4.06
					c0.68,0.12,0.99,0.45,1.67,2.46c0.52,1.51,1.48,4.33,4.53,4.42c0.05,0,0.1,0,0.15,0c3.52,0,4.12-3.8,4.38-5.43
					c0.02-0.13,0.04-0.27,0.07-0.42c0.5,0.68,0.98,1.65,1.41,2.55c1.17,2.4,2.77,5.67,6.5,5.72c2,0.03,3.71-0.73,5.06-1.76
					c1.66,2.42,2.46,2.86,2.86,3.08c0.77,0.43,1.4,0.47,3.27,0.58c23.11,1.4,40.92,9.8,52.93,24.98c1.1,1.39,3.11,1.62,4.5,0.52
					c1.39-1.1,1.62-3.11,0.52-4.5c-5.6-7.08-12.44-12.86-20.39-17.28c2.46-6.2,11.76-28.13,25.59-43.23
					c1.02,0.67,2.44,1.75,4.13,3.43c3.26,3.24,8.17,9.4,13.09,20.36c8.54,19.03,14.29,44.7,11.68,58.98
					c-4.49-5.66-9.88-10.27-16.04-13.72c0.11-1.42,0.17-3.33-0.03-5.29c-0.59-5.79-3.12-8.3-5.12-9.38
					c-0.62-0.34-1.27-0.59-1.97-0.76c0.76-5.17,2.05-15.2,2.41-25.83c0.22-6.62,0.04-12.49-0.55-17.45c-0.21-1.76-1.8-3.01-3.56-2.8
					c-1.76,0.21-3.01,1.8-2.8,3.56c0.55,4.64,0.72,10.19,0.51,16.49c-0.48,14.57-2.86,28.42-2.88,28.56
					c-0.18,1.02,0.15,2.07,0.88,2.8c0.73,0.74,1.77,1.07,2.8,0.9c0.91-0.15,1.61-0.1,2.11,0.17c1.85,1,2.24,5.93,1.66,10.02
					l-0.05,0.31c-0.22,1.38,0.48,2.74,1.73,3.37c0.41,0.2,0.82,0.42,1.28,0.67c0.04,0.02,0.08,0.04,0.12,0.06
					c6.29,3.45,11.67,8.26,16.01,14.31c0.31,0.43,0.61,0.87,0.92,1.33c-0.31,1.32,0.25,2.75,1.48,3.49c0.29,0.17,0.59,0.29,0.9,0.36
					c2.05,3.61,3.88,7.66,5.43,12.06c1.61,4.53,2.99,9.58,4.24,15.46c0.92,4.32,1.65,8.56,2.29,12.29c0.48,2.79,0.94,5.43,1.42,7.8
					c0.06,0.32,0.13,0.63,0.2,0.94c0.01,0.06,0.02,0.12,0.04,0.18l0.01,0.06c0,0.02,0.01,0.04,0.01,0.07
					c0.51,2.38,2.47,4.51,6.18,6.7c1.59,0.94,3.42,1.84,5.32,2.68c-8.52,1.32-18.13,2.86-20.27,3.37
					c-0.74,0.15-4.36-0.12-10.81-1.95c-5.15-1.46-9.86-3.32-11.45-4.54c-2.58-1.97-6.17-2.74-9.63-3.49
					c-2.7-0.58-6.06-1.3-6.98-2.44c-0.77-0.94-1.63-1.63-2.56-2.14c0.97-0.6,1.81-1.07,2.43-1.38c1.58-0.8,2.21-2.73,1.41-4.31
					c-0.8-1.58-2.73-2.21-4.31-1.41c-0.75,0.38-4.37,2.28-8.09,5.22c-0.06-0.01-0.12-0.02-0.18-0.03c0.1-0.52,0.07-1.07-0.1-1.61
					c-0.56-1.68-2.37-2.59-4.05-2.03c-0.62,0.21-1.45,0.66-2.52,1.57c-1.64-0.69-3.69-1.18-5.97-1.45
					c-2.65-6.46-9.35-10.66-16.62-9.85c-4.26,0.48-8.07,2.59-10.74,5.94c-2.67,3.35-3.88,7.54-3.4,11.79c0.11,1.01,0.32,2,0.62,2.95
					c-6.46,8.55-19.31,10.4-19.44,10.42c-0.47,0.06-0.9,0.23-1.28,0.47c-1.25-0.61-2.48-1.18-3.71-1.69
					c-5.01-4.37-13.45-6.65-22.87-5.59c-1.25,0.14-2.47,0.34-3.66,0.58c-6.88,0.29-12.88,1.76-17.72,3.52
					c-3.94,1.43-7.38,3.13-10.26,4.8c-0.24-0.05-0.49-0.08-0.75-0.07c-0.01,0-0.03,0-0.04,0c-1.44,0-6-1.63-11.27-3.7
					c1.16-2.55,1.67-5.43,1.34-8.41c-0.48-4.26-2.59-8.07-5.94-10.74c-3.35-2.67-7.53-3.88-11.79-3.4
					c-4.26,0.48-8.07,2.59-10.74,5.93c-1.21,1.52-2.12,3.21-2.71,5c-24.02-6.34-30.3,2.73-33.75,7.72
					c-0.36,0.52-0.82,1.19-1.13,1.54c-12.26,1.69-15.6,6.81-18.05,10.57c-1.22,1.88-1.92,2.88-3.26,3.43
					c-2.06,0.85-7.13,0.93-19.6-3.51c-0.94-0.33-1.33-0.47-1.66-0.56c-0.42-0.11-0.85-0.12-1.25-0.06
					C112.55,276.22,112.85,275.82,113.31,275.37z M343.34,256.09c0.03,0.01,0.05,0.01,0.07,0.02c-0.03,0.04-0.05,0.07-0.08,0.11
					C343.34,256.17,343.34,256.13,343.34,256.09z M434.68,280.36c-2.49,7.53-7.26,19.42-15.91,33.46
					c-2.75,4.46-5.72,8.84-8.84,13.04c-0.64,0.87-1.35,1.8-2.16,2.86c-5.32,6.88-11.13,13.38-17.29,19.3
					c-0.6,0.57-1.2,1.14-1.82,1.73c-0.41,0.39-0.83,0.78-1.26,1.16c-0.44,0.41-0.89,0.81-1.35,1.22c-0.78,0.7-1.59,1.41-2.49,2.19
					c-0.43,0.37-0.86,0.74-1.3,1.11c-8.37,7.05-17.4,13.22-26.84,18.33c-0.18,0.09-0.36,0.19-0.55,0.29
					c-0.22,0.12-0.43,0.23-0.68,0.36c-9.1,4.82-18.76,8.75-28.69,11.69c-6.06,1.79-12.35,3.24-18.68,4.31
					c-0.03,0-0.06,0.01-0.09,0.01c-13.3,2.26-27.37,2.95-41.83,2.06c-7.22-0.44-14.38-1.19-21.27-2.22c-0.01,0-0.02,0-0.03,0
					c-0.01,0-0.02,0-0.03,0c-36.49-5.47-66.69-18.99-89.77-40.17c-4.41-4.05-8.55-8.38-12.31-12.89c-0.02-0.02-0.04-0.05-0.06-0.07
					c-2.51-3.01-4.88-6.13-7.05-9.27c-2.32-3.36-4.48-6.83-6.41-10.32c-1.58-2.86-3.01-5.74-4.26-8.57
					c-0.71-1.59-1.37-3.22-1.98-4.84c-2.42-6.41-3.04-10.4-3.02-11.73c0.01-0.39,0-0.74-0.02-1.08c0-0.17-0.02-0.31-0.03-0.42
					c-0.11-1.7-0.45-3.38-1.02-5.01c-0.03-0.1-0.06-0.2-0.1-0.29c-0.09-0.24-0.18-0.49-0.27-0.72h0c-0.01-0.02-0.02-0.05-0.03-0.07
					c-0.21-0.52-0.43-1-0.66-1.46c5.14,1.7,10.71,3.16,15.37,3.16c2.02,0,3.87-0.27,5.44-0.92c3.25-1.34,4.81-3.74,6.19-5.86
					c2.11-3.25,4.3-6.6,14.25-7.81c0.3-0.04,0.59-0.11,0.86-0.23c1.77-0.75,2.84-2.29,3.97-3.92c2.95-4.26,7.34-10.61,27.76-4.93
					c0.01,0.12,0.02,0.24,0.03,0.36c0.32,2.85,1.38,5.44,2.95,7.61c-0.3-0.2-0.61-0.4-0.92-0.6c-5.86-3.71-10.91-5.64-15.02-5.74
					c-0.02,0-0.05,0-0.07,0c-1.73,0-3.16,1.39-3.2,3.13c-0.04,1.77,1.36,3.23,3.13,3.28c6.01,0.14,15.31,6.95,18.39,9.57
					c0.6,0.51,1.34,0.76,2.08,0.76c0.91,0,1.81-0.38,2.44-1.13c0.93-1.09,1-2.62,0.28-3.78c1.83,0.73,3.82,1.13,5.88,1.13
					c0.6,0,1.2-0.03,1.8-0.1c3.43-0.39,6.48-1.83,8.88-3.98c3.48,1.39,6.39,2.5,8.78,3.29c-1.85,1.45-2.88,2.45-2.99,2.56
					c-1.26,1.24-1.28,3.26-0.04,4.52c0.63,0.64,1.46,0.96,2.29,0.96c0.81,0,1.62-0.3,2.24-0.91c0.06-0.06,6.06-5.84,15.99-9.93
					c-1.86,2.73-2.75,5.76-2.4,8.88c0.95,8.49,10.71,14.32,23.04,14.32c1.48,0,2.99-0.08,4.53-0.26
					c13.96-1.57,24.2-9.82,23.82-18.99c1.35,0.3,2.79-0.31,3.49-1.58c0.12-0.22,0.21-0.45,0.28-0.69c4.38-1,13.11-3.72,19.26-10.31
					c0.59,0.66,1.24,1.28,1.95,1.85c2.87,2.29,6.35,3.5,9.97,3.5c0.61,0,1.21-0.03,1.82-0.1c4.26-0.48,8.07-2.59,10.74-5.94
					c0.33-0.41,0.64-0.84,0.92-1.28c0.17,0.18,0.36,0.35,0.57,0.49c0.55,0.36,1.16,0.54,1.77,0.54c1.03,0,2.05-0.5,2.67-1.43
					c0.48-0.72,0.99-1.45,1.49-2.15c-0.51,1.01-0.91,2.06-1.15,3.15c-0.39,1.73,0.7,3.44,2.42,3.83c0.24,0.05,0.47,0.08,0.7,0.08
					c1.47,0,2.79-1.01,3.12-2.5c0.5-2.23,2.37-4.52,4.62-6.56c2.15,0.26,3.45,0.53,4.12,1.35c2.34,2.89,6.54,3.79,10.61,4.66
					c2.78,0.6,5.65,1.21,7.09,2.31c3.44,2.62,11.38,4.98,13.73,5.65c3.81,1.07,10.68,2.75,13.91,1.97
					c2.74-0.66,21.15-3.5,30.89-4.98c-0.61,2.91-1.5,6.16-2.61,9.55C434.71,280.25,434.69,280.31,434.68,280.36z" class="st6"></path>
				<path d="M327.71,290.74c-3.01-2.27-5.92-3.81-6.04-3.88c-1.56-0.83-3.5-0.23-4.33,1.34
					c-0.83,1.56-0.23,3.5,1.34,4.33c1.83,0.97,3.77,2.23,5.46,3.54c-1.16,0.72-1.76,2.14-1.39,3.52c0.26,1.26-0.69,9.91-6.77,17.76
					c-5.25,6.79-12.44,10.47-21.37,10.95c-10.1,0.54-18.93-1.71-26.25-6.7c-5.49-3.74-8.05-7.72-8.07-7.75
					c-0.47-0.76-1.24-1.29-2.12-1.45c-0.88-0.17-1.79,0.04-2.51,0.57c-12.43,9.19-22.76,12.49-29.87,9.55
					c-8.95-3.7-10.97-16.25-11-16.45c-0.07-0.49-0.26-0.94-0.52-1.33c0.09-0.01,0.16-0.01,0.21,0c1.16,1.11,2.98,1.2,4.25,0.15
					c1.36-1.13,1.56-3.14,0.43-4.51c-0.85-1.03-2.61-2.12-4.97-2.05c-3.94,0.11-8.11,3.25-12.76,9.6c-1.04,1.43-0.73,3.43,0.69,4.48
					c0.57,0.42,1.23,0.62,1.89,0.62c0.99,0,1.96-0.45,2.59-1.31c0.8-1.09,1.54-2.02,2.23-2.8c1.04,4.45,4.55,15.37,14.47,19.5
					c0.23,0.09,0.46,0.18,0.69,0.27c0.09,0.31,0.22,0.61,0.41,0.9c0.31,0.47,6.48,9.72,15.39,14.26c-1.95,4.03-2.62,7.76-2,11.15
					c1.13,6.14,6.3,10.62,15.35,13.31c0.09,0.03,0.18,0.05,0.27,0.07c1.81,0.37,3.61,0.55,5.37,0.55c8.01,0,15.38-3.77,21.15-10.94
					c2.8-3.48,5.06-7.65,6.51-11.63c13.22-2.95,23.02-9.29,29.19-18.94c0.18-0.28,0.31-0.58,0.39-0.88c2.36-2.02,4.24-4.18,5.71-6.2
					c3.52-4.85,5.36-9.74,6.28-12.99c0.49-1.73,0.83-3.39,1.01-4.86c0.55,1.02,1.62,1.7,2.82,1.7c0.12,0,0.24-0.01,0.36-0.02
					c1.76-0.2,3.02-1.78,2.82-3.54C334.67,297.42,332.27,294.18,327.71,290.74z M234.78,332.13c-0.74-0.75-1.41-1.49-2.01-2.17
					c7.02-0.39,15.09-3.72,24.13-9.99c0.67,0.78,1.51,1.69,2.52,2.66c-0.53,0.07-1.05,0.28-1.5,0.63c-0.23,0.17-5.6,4.3-10.76,10.07
					c-1.54,1.72-2.89,3.4-4.06,5.03C239.9,336.82,237.03,334.41,234.78,332.13z M274.72,354.25c-3.83,4.64-10.38,9.77-19.9,7.89
					c-6.47-1.95-10.08-4.73-10.74-8.29c-0.74-3.99,2.03-9.74,7.78-16.19c4.76-5.33,9.89-9.28,9.94-9.32
					c0.84-0.65,1.27-1.63,1.25-2.61c1.02,0.77,2.13,1.54,3.35,2.29c-3.36,2.7-12.91,11.25-12.69,20.93c0.04,1.74,1.47,3.13,3.2,3.13
					c0.03,0,0.05,0,0.08,0c1.77-0.04,3.17-1.51,3.13-3.28c-0.16-6.74,8.01-14.17,11.17-16.46c0.47-0.34,0.81-0.78,1.04-1.27
					c2.78,1.17,5.92,2.16,9.44,2.83c-0.42,0.83-0.49,1.83-0.08,2.75C282.43,338.45,280.53,347.21,274.72,354.25z M288.12,339.34
					c0.17-1.8,0.07-3.41-0.35-4.69c1.27,0.09,2.57,0.14,3.92,0.14c1.06,0,2.14-0.03,3.25-0.09c1.79-0.1,3.48-0.3,5.09-0.6
					C296.36,336.46,292.31,338.15,288.12,339.34z" class="st6"></path>
				<path d="M298.52,356.51c-1.67-0.58-3.5,0.31-4.07,1.98c-2.36,6.83-7.43,11.21-15.07,13
					c-6.04,1.42-11.48,0.65-11.56,0.64c-1.75-0.26-3.37,0.94-3.64,2.69c-0.26,1.75,0.94,3.38,2.69,3.64
					c0.14,0.02,1.98,0.29,4.75,0.29c2.45,0,5.62-0.21,9-0.98c9.9-2.26,16.77-8.21,19.87-17.2
					C301.08,358.91,300.2,357.09,298.52,356.51z" class="st6"></path>
				<path d="M199.27,287.72c-0.09-0.05-8.57-4.99-15.87-4.99c-0.08,0-0.16,0-0.23,0c-1.77,0.03-3.18,1.48-3.16,3.25
					c0.03,1.77,1.47,3.18,3.25,3.15c4.6-0.08,10.91,3.02,12.76,4.11c0.51,0.3,1.07,0.44,1.62,0.44c1.1,0,2.17-0.57,2.76-1.58
					C201.3,290.58,200.79,288.62,199.27,287.72z" class="st6"></path>
			</g>
			<g>
				<circle r="3.1" cy="258.57" cx="213.71" class="st2"></circle>
			</g>
			<g>
				<circle r="1.37" cy="269.44" cx="200.07" class="st2"></circle>
			</g>
			<g>
				<circle r="3.1" cy="249.55" cx="333.92" class="st2"></circle>
			</g>
			<g>
				<circle r="1.37" cy="262.63" cx="322.29" class="st2"></circle>
			</g>
			<g>
				<path d="M277.46,280.29c-8.08-1.67-18.88,3.13-18.88,3.13s4.5,1.61,10.59,0.42
					C275.27,282.66,277.46,280.29,277.46,280.29z" class="st2"></path>
				<path d="M264.69,287.48c-4.2,0-7.02-0.99-7.18-1.04c-1.23-0.44-2.07-1.59-2.12-2.9c-0.05-1.31,0.7-2.51,1.9-3.05
					c0.48-0.21,11.84-5.2,20.83-3.34c1.13,0.23,2.05,1.06,2.4,2.16c0.35,1.1,0.09,2.3-0.7,3.15c-0.48,0.52-3.24,3.21-10.02,4.52
					C267.95,287.35,266.23,287.48,264.69,287.48z" class="st2"></path>
			</g>
		</g>
	</g>
</g>
</svg>
